<svg width="45" height="45" viewBox="0 0 45 45" fill="none" xmlns="http://www.w3.org/2000/svg">
<path d="M15 41.25C16.0355 41.25 16.875 40.4105 16.875 39.375C16.875 38.3395 16.0355 37.5 15 37.5C13.9645 37.5 13.125 38.3395 13.125 39.375C13.125 40.4105 13.9645 41.25 15 41.25Z" stroke="white" stroke-width="2" stroke-linecap="round" stroke-linejoin="round"/>
<path d="M35.625 41.25C36.6605 41.25 37.5 40.4105 37.5 39.375C37.5 38.3395 36.6605 37.5 35.625 37.5C34.5895 37.5 33.75 38.3395 33.75 39.375C33.75 40.4105 34.5895 41.25 35.625 41.25Z" stroke="white" stroke-width="2" stroke-linecap="round" stroke-linejoin="round"/>
<path d="M3.84375 3.84375H7.59375L12.5812 27.1313C12.7642 27.9841 13.2388 28.7465 13.9232 29.2872C14.6077 29.828 15.4592 30.1132 16.3312 30.0937H34.6688C35.5222 30.0924 36.3497 29.7999 37.0144 29.2647C37.6792 28.7295 38.1415 27.9835 38.325 27.15L41.4188 13.2188H9.6" stroke="white" stroke-width="2" stroke-linecap="round" stroke-linejoin="round"/>
</svg>
