<svg width="30" height="30" viewBox="0 0 30 30" fill="none" xmlns="http://www.w3.org/2000/svg">
<path d="M18.75 26.25V16.25C18.75 15.9185 18.6183 15.6005 18.3839 15.3661C18.1495 15.1317 17.8315 15 17.5 15H12.5C12.1685 15 11.8505 15.1317 11.6161 15.3661C11.3817 15.6005 11.25 15.9185 11.25 16.25V26.25" stroke="white" stroke-width="2" stroke-linecap="round" stroke-linejoin="round"/>
<path d="M3.75 12.5C3.74991 12.1363 3.82917 11.777 3.98223 11.4472C4.1353 11.1173 4.3585 10.8248 4.63625 10.59L13.3862 3.09C13.8375 2.70864 14.4092 2.4994 15 2.4994C15.5908 2.4994 16.1625 2.70864 16.6138 3.09L25.3638 10.59C25.6415 10.8248 25.8647 11.1173 26.0178 11.4472C26.1708 11.777 26.2501 12.1363 26.25 12.5V23.75C26.25 24.413 25.9866 25.0489 25.5178 25.5178C25.0489 25.9866 24.413 26.25 23.75 26.25H6.25C5.58696 26.25 4.95107 25.9866 4.48223 25.5178C4.01339 25.0489 3.75 24.413 3.75 23.75V12.5Z" stroke="white" stroke-width="2" stroke-linecap="round" stroke-linejoin="round"/>
</svg>
