<svg width="80" height="80" viewBox="0 0 80 80" fill="none" xmlns="http://www.w3.org/2000/svg">
<path d="M35.3242 54.1758C34.832 54.1758 34.1465 54.1465 33.2676 54.0879V50.6953C33.7363 50.8359 34.5801 50.9062 35.7988 50.9062C37.0293 50.9062 38.0605 50.7363 38.8926 50.3965C39.7363 50.0566 40.4395 49.5176 41.002 48.7793C42.1387 47.291 42.707 44.9062 42.707 41.625V32.6426H33.6895V29.5312H46.2227V41.625C46.2227 47.9766 44.2246 51.9023 40.2285 53.4023C38.8574 53.918 37.2227 54.1758 35.3242 54.1758Z" fill="white"/>
<path d="M40 0C62.0914 0 80 17.9086 80 40C80 62.0914 62.0914 80 40 80C17.9086 80 0 62.0914 0 40C0 17.9086 17.9086 0 40 0ZM40 10C23.4315 10 10 23.4315 10 40C10 56.5685 23.4315 70 40 70C56.5685 70 70 56.5685 70 40C70 23.4315 56.5685 10 40 10Z" fill="#D9D9D9"/>
</svg>
