<svg width="30" height="30" viewBox="0 0 30 30" fill="none" xmlns="http://www.w3.org/2000/svg">
<path d="M12.5 3.75H5C4.30964 3.75 3.75 4.30964 3.75 5V25C3.75 25.6904 4.30964 26.25 5 26.25H12.5C13.1904 26.25 13.75 25.6904 13.75 25V5C13.75 4.30964 13.1904 3.75 12.5 3.75Z" stroke="white" stroke-width="2" stroke-linecap="round" stroke-linejoin="round"/>
<path d="M8.75 3.75V26.25" stroke="white" stroke-width="2" stroke-linecap="round" stroke-linejoin="round"/>
<path d="M25.5 23.625C25.75 24.25 25.375 25 24.75 25.25L22.375 26.125C21.75 26.375 21 26 20.75 25.375L13.875 6.375C13.625 5.75 14 5 14.625 4.75L17 3.875C17.625 3.625 18.375 4 18.625 4.625L25.5 23.625Z" stroke="white" stroke-width="2" stroke-linecap="round" stroke-linejoin="round"/>
</svg>
