<svg width="30" height="30" viewBox="0 0 30 30" fill="none" xmlns="http://www.w3.org/2000/svg">
<path d="M18.75 26.25V20C18.75 19.6685 18.6183 19.3505 18.3839 19.1161C18.1495 18.8817 17.8315 18.75 17.5 18.75H12.5C12.1685 18.75 11.8505 18.8817 11.6161 19.1161C11.3817 19.3505 11.25 19.6685 11.25 20V26.25" stroke="white" stroke-width="2" stroke-linecap="round" stroke-linejoin="round"/>
<path d="M22.2175 12.8875C21.9569 12.638 21.6101 12.4988 21.2494 12.4988C20.8886 12.4988 20.5418 12.638 20.2813 12.8875C19.7 13.4419 18.9276 13.7512 18.1244 13.7512C17.3211 13.7512 16.5487 13.4419 15.9675 12.8875C15.707 12.6384 15.3604 12.4994 15 12.4994C14.6396 12.4994 14.293 12.6384 14.0325 12.8875C13.4512 13.4423 12.6785 13.7518 11.875 13.7518C11.0715 13.7518 10.2988 13.4423 9.7175 12.8875C9.45692 12.638 9.11011 12.4988 8.74938 12.4988C8.38864 12.4988 8.04183 12.638 7.78125 12.8875C7.21981 13.4233 6.47909 13.731 5.70328 13.7507C4.92748 13.7704 4.17208 13.5008 3.58413 12.9942C2.99618 12.4877 2.61775 11.7805 2.52248 11.0103C2.42722 10.2401 2.62194 9.46203 3.06875 8.8275L6.68 3.5975C6.90913 3.25939 7.21762 2.98257 7.57847 2.79124C7.93933 2.59992 8.34156 2.49992 8.75 2.5H21.25C21.6572 2.49984 22.0584 2.59918 22.4185 2.78936C22.7786 2.97954 23.0868 3.25482 23.3163 3.59125L26.935 8.83125C27.3819 9.46628 27.5764 10.245 27.4805 11.0155C27.3847 11.7861 27.0053 12.4934 26.4165 12.9996C25.8276 13.5058 25.0713 13.7746 24.2951 13.7536C23.5188 13.7327 22.7782 13.4235 22.2175 12.8863" stroke="white" stroke-width="2" stroke-linecap="round" stroke-linejoin="round"/>
<path d="M5 13.6875V23.75C5 24.413 5.26339 25.0489 5.73223 25.5178C6.20107 25.9866 6.83696 26.25 7.5 26.25H22.5C23.163 26.25 23.7989 25.9866 24.2678 25.5178C24.7366 25.0489 25 24.413 25 23.75V13.6875" stroke="white" stroke-width="2" stroke-linecap="round" stroke-linejoin="round"/>
</svg>
